<svg xmlns="http://www.w3.org/2000/svg" version="1.1" xmlns:xlink="http://www.w3.org/1999/xlink" xmlns:svgjs="http://svgjs.dev/svgjs" viewBox="0 0 800 800" fill="#000000"><defs><linearGradient x1="50%" y1="0%" x2="50%" y2="100%" id="cccoil-grad"><stop stop-color="hsl(162, 100%, 58%)" stop-opacity="1" offset="0%"></stop><stop stop-color="hsl(270, 73%, 53%)" stop-opacity="1" offset="100%"></stop></linearGradient></defs><g stroke="url(#cccoil-grad)" fill="none" stroke-linecap="round"><circle r="275" cx="400" cy="400" stroke-width="20" stroke-dasharray="1555 1728" transform="rotate(360, 400, 400)" opacity="1.00"></circle><circle r="247.5" cx="400" cy="400" stroke-width="20" stroke-dasharray="1244 1555" transform="rotate(320, 400, 400)" opacity="0.89"></circle><circle r="220" cx="400" cy="400" stroke-width="20" stroke-dasharray="968 1382" transform="rotate(280, 400, 400)" opacity="0.79"></circle><circle r="192.5" cx="400" cy="400" stroke-width="20" stroke-dasharray="726 1210" transform="rotate(240, 400, 400)" opacity="0.68"></circle><circle r="165" cx="400" cy="400" stroke-width="20" stroke-dasharray="518 1037" transform="rotate(200, 400, 400)" opacity="0.58"></circle><circle r="137.5" cx="400" cy="400" stroke-width="20" stroke-dasharray="346 864" transform="rotate(160, 400, 400)" opacity="0.47"></circle><circle r="110" cx="400" cy="400" stroke-width="20" stroke-dasharray="207 691" transform="rotate(120, 400, 400)" opacity="0.37"></circle><circle r="82.5" cx="400" cy="400" stroke-width="20" stroke-dasharray="104 518" transform="rotate(80, 400, 400)" opacity="0.26"></circle><circle r="55" cx="400" cy="400" stroke-width="20" stroke-dasharray="35 346" transform="rotate(40, 400, 400)" opacity="0.16"></circle><circle r="27.5" cx="400" cy="400" stroke-width="20" stroke-dasharray="0 173" opacity="0.05"></circle></g></svg>