<svg xmlns="http://www.w3.org/2000/svg" version="1.1" xmlns:xlink="http://www.w3.org/1999/xlink" xmlns:svgjs="http://svgjs.dev/svgjs" viewBox="0 0 800 800"><defs><linearGradient x1="50%" y1="0%" x2="50%" y2="100%" id="ccchaos-grad"><stop stop-color="hsl(206, 75%, 49%)" stop-opacity="1" offset="0%"></stop><stop stop-color="hsl(331, 90%, 56%)" stop-opacity="1" offset="100%"></stop></linearGradient></defs><g stroke-width="2" stroke="url(#ccchaos-grad)" fill="none" stroke-linecap="round"><path d="M380.7 104.48C390.12 106.97 399.54 110.24 408.94 114.13 418.36 118.1 427.79 122.46 437.22 127.05 446.7 131.38 456.21 135.77 465.76 140.13 475.4 144.01 485.11 147.8 494.9 151.47 504.81 154.63 514.83 157.72 524.94 160.77 535.2 163.41 545.56 166.15 555.99 169.02 566.53 171.67 577.11 174.61 587.66 177.89 598.22 181.14 608.64 184.84 618.83 189.02 628.84 193.31 638.46 198.15 647.53 203.53 656.2 209.1 664.12 215.22 671.15 221.85 677.53 228.69 682.85 236.02 686.97 243.78 690.29 251.72 692.34 260.05 693.07 268.69 693.04 277.47 691.77 286.52 689.34 295.76 686.42 305.09 682.6 314.58 678.06 324.16 673.54 333.79 668.69 343.47 663.73 353.15 659.41 362.85 655.38 372.53 651.84 382.14 649.43 391.75 647.78 401.05 646.89 410.02 647.2 419 648.15 427.65 649.63 436 652 444.36 654.59 452.44 657.21 460.25 660.24 468.13 662.93 475.82 665.13 483.33 667.24 491.01 668.55 498.62 668.97 506.21 668.93 514.08 667.84 522.04 665.69 530.16 662.93 538.66 659.09 547.42 654.22 556.46 648.77 565.96 642.39 575.77 635.19 585.88 627.52 596.37 619.18 607.07 610.26 617.89 601.06 628.84 591.43 639.67 581.48 650.18 571.4 660.39 561.1 669.95 550.67 678.6 540.21 686.44 529.68 693.03 519.16 698.15 508.66 702.08 498.18 704.34 487.77 704.85 477.39 704.15 467.09 701.81 456.87 697.95 446.69 693.33 436.59 687.65 426.59 681.19 416.61 674.86 406.71 668.41 396.91 662.19 387.11 657.07 377.63 652.82 368.45 649.6 359.26 647.91 350.37 647.29 341.78 647.64 333.15 649.31 324.81 651.62 316.75 654.31 308.64 657.68 300.79 660.93 293.21 663.79 285.56 666.59 278.14 668.55 270.97 669.51 263.68 669.86 256.61 668.96 249.74 666.78 242.73 663.76 235.9 659.46 229.24 653.95 222.42 647.66 215.75 640.31 209.25 632.07 202.57 623.26 196.04 613.77 189.68 603.76 183.17 593.44 176.84 582.78 170.74 571.93 164.52 560.98 158.55 549.95 152.88 538.94 147.17 527.95 141.8 517.04 136.84 506.25 131.92 495.53 127.46 484.94 123.5 474.49 119.68 464.11 116.42 453.86 113.75 443.74 111.29 433.67 109.46 423.69 108.3 413.84 107.37 404 107.11 394.25 107.57 384.6 108.23 374.96 109.56 365.63 111.5 356.65 113.59 347.65 116.23 338.99 119.38 330.67 122.58 322.35 126.22 314.38 130.25 306.78 134.24 299.17 138.57 291.92 143.18 285.05 147.67 278.14 152.41 271.6 157.36 265.39 162.13 259.12 167.1 253.15 172.24 247.46 177.18 241.62 182.31 235.99 187.61 230.54 192.72 224.85 198.03 219.25 203.54 213.71 208.9 207.83 214.49 201.94 220.33 196.02 226.06 189.71 232.06 183.34 238.33 176.92 244.55 170.15 251.07 163.38 257.88 156.67 264.66 149.75 271.75 143.02 279.14 136.59 286.53 130.2 294.21 124.28 302.17 118.97 310.14 113.99 318.38 109.81 326.88 106.52 335.37 103.79 344.12 102.08 353.1 101.44 362.07 101.41 371.27 102.43 380.69 104.48" stroke-dasharray="3 6" transform="rotate(0, 400, 400)" opacity="0.19"></path><path d="M383.44 115.21C392.56 117.66 401.71 120.86 410.88 124.68 420.06 128.58 429.29 132.86 438.55 137.4 447.85 141.71 457.21 146.1 466.63 150.49 476.12 154.44 485.69 158.31 495.34 162.09 505.09 165.38 514.93 168.59 524.85 171.77 534.87 174.52 544.95 177.33 555.06 180.25 565.24 182.9 575.38 185.78 585.44 188.95 595.45 192.02 605.26 195.48 614.77 199.36 624.07 203.28 632.93 207.7 641.2 212.6 649.05 217.64 656.16 223.18 662.38 229.21 667.99 235.41 672.57 242.08 676.04 249.17 678.77 256.41 680.34 264.04 680.71 272.01 680.41 280.09 679.01 288.46 676.56 297.06 673.72 305.74 670.08 314.6 665.8 323.59 661.58 332.63 657.07 341.75 652.46 350.92 648.46 360.11 644.71 369.31 641.37 378.5 639.07 387.69 637.43 396.63 636.47 405.31 636.59 414 637.29 422.44 638.47 430.63 640.47 438.86 642.69 446.87 644.97 454.7 647.66 462.61 650.09 470.39 652.11 478.08 654.1 485.93 655.41 493.78 655.95 501.66 656.13 509.81 655.38 518.08 653.67 526.52 651.44 535.3 648.23 544.31 644.06 553.58 639.36 563.21 633.78 573.09 627.4 583.18 620.58 593.53 613.07 603.99 604.98 614.44 596.59 624.9 587.74 635.13 578.52 644.94 569.14 654.37 559.5 663.08 549.67 670.85 539.79 677.82 529.79 683.55 519.74 687.87 509.69 691.1 499.63 692.77 489.6 692.83 479.59 691.83 469.62 689.34 459.72 685.48 449.85 681 440.05 675.56 430.33 669.43 420.63 663.45 411.01 657.36 401.49 651.47 391.96 646.57 382.74 642.45 373.82 639.25 364.88 637.43 356.23 636.57 347.87 636.59 339.47 637.85 331.35 639.71 323.49 641.97 315.57 644.92 307.9 647.82 300.49 650.44 292.98 653.11 285.7 655.09 278.64 656.23 271.47 656.9 264.49 656.48 257.7 654.92 250.77 652.65 244.01 649.2 237.41 644.62 230.65 639.32 224.04 633 217.59 625.78 210.97 618.01 204.51 609.5 198.22 600.42 191.79 591 185.54 581.16 179.52 571.04 173.4 560.76 167.54 550.33 161.97 539.84 156.39 529.32 151.14 518.8 146.29 508.36 141.51 497.95 137.16 487.62 133.32 477.42 129.61 467.27 126.45 457.24 123.87 447.34 121.5 437.48 119.74 427.74 118.64 418.12 117.77 408.53 117.56 399.05 118.03 389.71 118.72 380.36 120.06 371.36 121.99 362.7 124.06 354.03 126.68 345.71 129.8 337.74 132.96 329.75 136.56 322.11 140.54 314.82 144.49 307.51 148.76 300.54 153.32 293.91 157.76 287.23 162.45 280.86 167.35 274.8 172.07 268.63 176.99 262.72 182.08 257.05 186.97 251.2 192.04 245.52 197.28 239.97 202.32 234.17 207.55 228.43 212.97 222.72 218.22 216.69 223.69 210.64 229.38 204.56 234.95 198.12 240.77 191.64 246.85 185.15 252.84 178.35 259.11 171.59 265.65 164.93 272.15 158.13 278.94 151.54 286.02 145.28 293.07 139.11 300.41 133.44 308.02 128.38 315.62 123.66 323.5 119.72 331.65 116.66 339.78 114.13 348.17 112.58 356.81 112.06 365.44 112.12 374.31 113.17 383.43 115.21" stroke-dasharray="10 7" transform="rotate(4.04, 400, 400)" opacity="0.15"></path><path d="M386.87 125.94C395.69 128.35 404.58 131.48 413.51 135.21 422.45 139.02 431.46 143.23 440.51 147.7 449.61 151.97 458.78 156.35 468.01 160.75 477.3 164.75 486.68 168.71 496.12 172.58 505.64 175.99 515.23 179.33 524.86 182.62 534.56 185.51 544.29 188.42 553.99 191.4 563.71 194.09 573.36 196.97 582.85 200.06 592.25 203.03 601.4 206.32 610.2 209.96 618.77 213.6 626.85 217.66 634.32 222.16 641.38 226.74 647.69 231.79 653.15 237.28 658.03 242.9 661.94 248.96 664.81 255.43 667.03 262.03 668.18 269.01 668.24 276.33 667.73 283.75 666.23 291.47 663.8 299.44 661.06 307.48 657.61 315.74 653.6 324.15 649.68 332.61 645.5 341.19 641.23 349.86 637.53 358.55 634.04 367.3 630.91 376.08 628.71 384.87 627.09 393.48 626.07 401.9 626.02 410.32 626.49 418.57 627.38 426.64 629.05 434.75 630.92 442.72 632.86 450.57 635.22 458.51 637.37 466.39 639.18 474.24 641.03 482.24 642.3 490.28 642.9 498.4 643.23 506.75 642.74 515.24 641.4 523.9 639.63 532.85 636.95 542 633.4 551.35 629.39 560.98 624.54 570.78 618.92 580.71 612.9 590.79 606.2 600.87 598.91 610.84 591.33 620.71 583.26 630.27 574.79 639.32 566.14 647.94 557.19 655.79 548.01 662.69 538.75 668.8 529.33 673.72 519.81 677.3 510.27 679.87 500.67 681.02 491.07 680.69 481.48 679.43 471.89 676.83 462.36 673.02 452.84 668.68 443.36 663.49 433.96 657.69 424.57 652.06 415.24 646.32 406 640.74 396.75 636.08 387.8 632.09 379.13 628.91 370.44 626.98 362.02 625.91 353.88 625.64 345.7 626.51 337.77 627.95 330.09 629.78 322.35 632.3 314.84 634.84 307.56 637.19 300.2 639.68 293.04 641.61 286.08 642.84 279.01 643.73 272.12 643.69 265.4 642.65 258.55 641.01 251.85 638.31 245.31 634.56 238.62 630.18 232.07 624.82 225.68 618.58 219.14 611.81 212.75 604.3 206.53 596.17 200.2 587.67 194.05 578.71 188.13 569.4 182.13 559.89 176.39 550.15 170.94 540.28 165.49 530.33 160.39 520.33 155.66 510.34 151.02 500.34 146.81 490.4 143.08 480.54 139.51 470.7 136.46 460.97 133.98 451.35 131.7 441.77 130.03 432.29 128.99 422.96 128.17 413.64 128 404.44 128.5 395.39 129.21 386.34 130.54 377.64 132.46 369.29 134.51 360.92 137.1 352.9 140.16 345.21 143.29 337.51 146.84 330.13 150.76 323.09 154.65 316.01 158.86 309.25 163.36 302.79 167.75 296.26 172.38 290 177.22 284.01 181.9 277.9 186.77 271.99 191.8 266.28 196.65 260.38 201.67 254.61 206.84 248.94 211.83 243.02 217 237.13 222.33 231.27 227.5 225.09 232.87 218.9 238.44 212.69 243.88 206.16 249.55 199.62 255.44 193.08 261.25 186.31 267.31 179.6 273.63 173.03 279.89 166.38 286.41 159.97 293.21 153.92 299.97 148 307 142.58 314.31 137.78 321.59 133.33 329.14 129.65 336.96 126.81 344.76 124.49 352.82 123.1 361.15 122.7 369.46 122.83 378.03 123.91 386.86 125.93" stroke-dasharray="4 7" transform="rotate(8.08, 400, 400)" opacity="0.51"></path><path d="M390.83 136.66C399.37 139.03 407.99 142.09 416.66 145.72 425.35 149.44 434.12 153.56 442.94 157.95 451.8 162.17 460.73 166.52 469.72 170.91 478.77 174.96 487.88 178.97 497.05 182.92 506.26 186.45 515.53 189.92 524.8 193.33 534.11 196.34 543.41 199.37 552.63 202.44 561.83 205.21 570.91 208.11 579.78 211.19 588.54 214.11 597 217.28 605.07 220.76 612.88 224.18 620.18 227.97 626.88 232.14 633.17 236.35 638.73 240.97 643.46 246 647.67 251.11 650.97 256.64 653.31 262.56 655.07 268.57 655.86 274.95 655.67 281.67 655 288.48 653.44 295.59 651.06 302.97 648.43 310.41 645.19 318.08 641.45 325.94 637.82 333.84 633.97 341.9 630.03 350.1 626.61 358.3 623.38 366.62 620.44 375.03 618.35 383.43 616.76 391.73 615.68 399.9 615.49 408.07 615.74 416.14 616.37 424.1 617.72 432.1 619.26 440.03 620.88 447.89 622.91 455.85 624.77 463.79 626.36 471.75 628.04 479.86 629.23 488.04 629.83 496.31 630.26 504.78 629.96 513.39 628.91 522.16 627.52 531.15 625.31 540.3 622.3 549.6 618.89 559.09 614.71 568.69 609.8 578.31 604.52 587.99 598.58 597.59 592.06 606.98 585.26 616.19 577.95 625.01 570.23 633.26 562.32 641.05 554.08 648.05 545.57 654.09 536.96 659.38 528.15 663.53 519.2 666.43 510.22 668.42 501.13 669.09 492.01 668.43 482.88 666.96 473.72 664.3 464.58 660.55 455.45 656.37 446.34 651.45 437.27 645.97 428.22 640.68 419.21 635.28 410.26 630.02 401.31 625.58 392.63 621.73 384.21 618.58 375.78 616.57 367.59 615.31 359.65 614.77 351.68 615.28 343.94 616.32 336.43 617.74 328.86 619.84 321.5 622.01 314.35 624.06 307.12 626.32 300.07 628.14 293.21 629.38 286.24 630.41 279.43 630.64 272.78 630 266.02 628.9 259.39 626.83 252.91 623.82 246.3 620.26 239.82 615.78 233.5 610.46 227.05 604.65 220.75 598.09 214.62 590.91 208.4 583.36 202.37 575.3 196.56 566.84 190.7 558.15 185.1 549.18 179.79 540.01 174.49 530.73 169.53 521.33 164.96 511.88 160.47 502.4 156.4 492.92 152.81 483.48 149.37 474.05 146.44 464.69 144.07 455.42 141.9 446.17 140.31 437.02 139.33 428 138.58 418.99 138.45 410.1 138.97 401.35 139.69 392.59 141.02 384.18 142.9 376.11 144.94 368.02 147.48 360.25 150.49 352.82 153.56 345.35 157.05 338.19 160.89 331.34 164.72 324.44 168.87 317.82 173.29 311.47 177.62 305.04 182.19 298.84 186.96 292.87 191.6 286.76 196.41 280.83 201.39 275.04 206.2 269.07 211.17 263.19 216.28 257.39 221.23 251.34 226.33 245.32 231.59 239.31 236.7 233.02 241.98 226.72 247.44 220.41 252.78 213.84 258.32 207.27 264.07 200.74 269.72 194.03 275.61 187.43 281.73 180.99 287.78 174.52 294.08 168.33 300.63 162.52 307.13 156.86 313.9 151.72 320.93 147.2 327.92 143.02 335.19 139.59 342.71 136.99 350.2 134.87 357.97 133.64 365.99 133.34 374 133.55 382.28 134.66 390.82 136.66" stroke-dasharray="5 10" transform="rotate(12.12, 400, 400)" opacity="0.14"></path><path d="M395.18 147.39C403.44 149.7 411.78 152.68 420.18 156.21 428.59 159.84 437.09 163.85 445.64 168.15 454.22 172.31 462.88 176.61 471.58 180.98 480.32 185.05 489.12 189.1 497.94 193.12 506.79 196.75 515.66 200.32 524.51 203.85 533.36 207 542.16 210.15 550.85 213.32 559.48 216.19 567.95 219.16 576.17 222.26 584.24 225.17 591.99 228.29 599.32 231.66 606.38 234.94 612.93 238.53 618.88 242.44 624.43 246.35 629.29 250.63 633.36 255.28 638.33 262.5 643.18 278.89 643.02 288 642.23 294.24 640.65 300.8 638.35 307.63 635.86 314.51 632.83 321.64 629.36 328.99 626.02 336.37 622.48 343.94 618.85 351.69 615.71 359.44 612.72 367.35 609.97 375.39 607.99 383.44 606.43 391.43 605.31 399.36 604.99 407.3 605.05 415.19 605.44 423.03 606.5 430.91 607.72 438.77 609.02 446.63 610.73 454.56 612.32 462.53 613.68 470.54 615.16 478.68 616.23 486.91 616.8 495.24 617.27 503.73 617.1 512.35 616.28 521.1 615.18 530.01 613.36 539.04 610.81 548.15 607.94 557.38 604.34 566.63 600.07 575.83 595.47 585.01 590.24 594.03 584.44 602.75 578.38 611.25 571.82 619.29 564.83 626.72 557.65 633.68 550.11 639.83 542.28 645.06 534.34 649.57 526.17 653.01 517.82 655.28 509.41 656.75 500.88 657.01 492.26 656.08 483.63 654.45 474.94 651.75 466.23 648.1 457.52 644.09 448.8 639.43 440.1 634.28 431.41 629.32 422.73 624.26 414.1 619.29 405.46 615.08 397.06 611.37 388.9 608.28 380.72 606.2 372.77 604.78 365.04 603.99 357.28 604.17 349.72 604.84 342.38 605.87 334.98 607.56 327.77 609.35 320.74 611.08 313.64 613.07 306.71 614.73 299.94 615.92 293.08 617.01 286.36 617.41 279.79 617.08 273.11 616.38 266.57 614.85 260.16 612.46 253.65 609.62 247.26 605.93 241.02 601.45 234.68 596.53 228.49 590.89 222.48 584.61 216.39 577.99 210.49 570.83 204.82 563.24 199.12 555.41 193.67 547.24 188.51 538.82 183.39 530.27 178.59 521.55 174.18 512.72 169.85 503.83 165.95 494.89 162.5 485.95 159.21 477 156.41 468.08 154.15 459.21 152.09 450.36 150.59 441.58 149.69 432.9 148.99 424.23 148.9 415.66 149.43 407.22 150.17 398.78 151.48 390.65 153.34 382.83 155.34 375 157.83 367.47 160.77 360.24 163.78 352.99 167.19 346 170.96 339.3 174.71 332.53 178.78 326.01 183.12 319.73 187.38 313.36 191.88 307.18 196.58 301.19 201.15 295.06 205.91 289.07 210.82 283.2 215.58 277.14 220.5 271.16 225.56 265.23 230.46 259.08 235.51 252.94 240.7 246.82 245.75 240.45 250.96 234.08 256.33 227.72 261.58 221.15 267.01 214.61 272.64 208.14 278.16 201.54 283.9 195.08 289.84 188.82 295.72 182.57 301.82 176.63 308.16 171.08 314.45 165.71 320.98 160.87 327.76 156.63 334.5 152.74 341.5 149.57 348.74 147.19 355.97 145.27 363.45 144.2 371.19 144 378.92 144.28 386.91 145.41 395.17 147.38" stroke-dasharray="3 3" transform="rotate(16.16, 400, 400)" opacity="0.84"></path><path d="M399.73 158.11C407.69 160.37 415.74 163.26 423.85 166.68 431.97 170.2 440.17 174.11 448.42 178.29 456.69 182.38 465.02 186.62 473.38 190.95 481.77 195.01 490.19 199.1 498.61 203.16 507.05 206.87 515.47 210.54 523.83 214.18 532.17 217.46 540.42 220.73 548.53 224.01 556.55 226.99 564.37 230.05 571.91 233.21 579.3 236.15 586.33 239.27 592.93 242.58 599.27 245.78 605.09 249.24 610.31 252.97 617.28 258.67 627.01 271.69 629.6 279.06 630.75 286.82 628.67 304.01 625.68 313.38 623.34 319.75 620.53 326.39 617.32 333.27 614.27 340.17 611.03 347.29 607.71 354.61 604.83 361.93 602.07 369.46 599.51 377.16 597.63 384.86 596.11 392.56 594.95 400.25 594.52 407.95 594.41 415.65 594.59 423.35 595.37 431.09 596.3 438.86 597.3 446.65 598.7 454.52 600.01 462.44 601.13 470.43 602.4 478.53 603.32 486.72 603.83 495 604.28 503.4 604.2 511.92 603.53 520.51 602.66 529.22 601.15 538 599 546.8 596.57 555.64 593.49 564.44 589.78 573.12 585.79 581.71 581.21 590.07 576.08 598.08 570.72 605.82 564.86 613.05 558.56 619.66 552.09 625.79 545.25 631.14 538.09 635.59 530.82 639.38 523.29 642.17 515.55 643.88 507.75 644.87 499.79 644.79 491.7 643.63 483.6 641.88 475.4 639.19 467.14 635.65 458.89 631.84 450.59 627.44 442.28 622.61 433.97 617.97 425.66 613.23 417.35 608.57 409.05 604.57 400.95 601.01 393.05 597.98 385.14 595.85 377.43 594.3 369.91 593.3 362.37 593.18 355.01 593.5 347.83 594.15 340.61 595.45 333.55 596.86 326.65 598.26 319.7 599.97 312.88 601.42 306.22 602.5 299.48 603.56 292.86 604.06 286.38 603.93 279.82 603.55 273.37 602.43 267.06 600.57 260.66 598.33 254.38 595.33 248.25 591.6 242.04 587.48 235.98 582.68 230.1 577.26 224.17 571.52 218.42 565.24 212.91 558.5 207.38 551.53 202.11 544.19 197.13 536.55 192.19 528.77 187.57 520.76 183.33 512.6 179.19 504.37 175.45 496.03 172.16 487.64 169.03 479.23 166.37 470.8 164.23 462.4 162.28 453.99 160.88 445.62 160.04 437.32 159.41 429.03 159.36 420.81 159.9 412.68 160.64 404.56 161.94 396.71 163.75 389.15 165.71 381.57 168.14 374.26 171.01 367.22 173.95 360.15 177.27 353.31 180.94 346.72 184.62 340.07 188.6 333.62 192.84 327.38 197.02 321.04 201.43 314.86 206.05 308.83 210.56 302.68 215.24 296.63 220.09 290.67 224.8 284.54 229.66 278.46 234.65 272.43 239.5 266.2 244.5 259.99 249.63 253.79 254.62 247.39 259.76 241 265.05 234.65 270.22 228.13 275.57 221.67 281.08 215.31 286.49 208.87 292.09 202.59 297.89 196.55 303.62 190.55 309.55 184.89 315.7 179.63 321.79 174.57 328.12 170.03 334.67 166.08 341.18 162.48 347.94 159.57 354.93 157.41 361.9 155.69 369.12 154.77 376.58 154.68 384.04 155.02 391.75 156.17 399.72 158.11" stroke-dasharray="2 5" transform="rotate(20.200000000000003, 400, 400)" opacity="0.80"></path><path d="M404.28 168.84C411.95 171.04 419.7 173.84 427.49 177.14 435.3 180.55 443.17 184.33 451.08 188.4 459 192.39 466.96 196.55 474.94 200.82 482.93 204.86 490.93 208.95 498.9 213.03 506.87 216.81 514.79 220.56 522.62 224.28 530.42 227.68 538.09 231.07 545.57 234.46 552.97 237.57 560.12 240.73 566.98 243.96 573.67 246.97 580 250.12 585.89 253.43 594.09 258.28 607.24 269.04 611.96 275.05 615.43 281.32 618.22 295.4 617.58 303.22 616.67 308.55 615.15 314.18 613.06 320.09 610.89 326.02 608.29 332.22 605.36 338.67 602.58 345.13 599.62 351.83 596.59 358.76 593.96 365.69 591.42 372.85 589.04 380.22 587.27 387.59 585.78 395 584.61 402.44 584.08 409.9 583.82 417.39 583.8 424.93 584.33 432.49 584.99 440.11 585.72 447.79 586.83 455.52 587.86 463.33 588.73 471.22 589.79 479.18 590.55 487.23 590.96 495.35 591.36 503.56 591.3 511.85 590.74 520.18 590.04 528.58 588.77 536.98 586.93 545.36 584.88 553.71 582.23 561.97 579.01 570.04 575.57 577.97 571.56 585.62 567.04 592.87 562.31 599.83 557.1 606.26 551.47 612.06 545.67 617.39 539.5 621.97 532.99 625.69 526.38 628.82 519.49 631.01 512.36 632.23 505.17 632.82 497.78 632.45 490.25 631.11 482.68 629.29 475 626.63 467.22 623.22 459.44 619.61 451.58 615.48 443.68 610.96 435.78 606.64 427.85 602.22 419.89 597.84 411.94 594.07 404.15 590.66 396.53 587.7 388.91 585.54 381.45 583.87 374.16 582.69 366.85 582.3 359.69 582.3 352.69 582.61 345.65 583.53 338.76 584.57 332.01 585.64 325.21 587.04 318.53 588.25 311.99 589.17 305.38 590.15 298.89 590.66 292.53 590.66 286.09 590.48 279.77 589.68 273.57 588.23 267.31 586.49 261.17 584.07 255.17 580.98 249.12 577.58 243.22 573.53 237.49 568.9 231.74 563.97 226.17 558.52 220.83 552.61 215.5 546.47 210.42 539.94 205.63 533.08 200.9 526.08 196.48 518.81 192.43 511.35 188.48 503.8 184.92 496.1 181.8 488.31 178.83 480.49 176.32 472.6 174.31 464.69 172.48 456.77 171.17 448.85 170.4 440.96 169.83 433.07 169.82 425.22 170.37 417.42 171.11 409.63 172.38 402.08 174.15 394.76 176.06 387.44 178.42 380.34 181.2 373.47 184.06 366.57 187.29 359.87 190.86 353.38 194.44 346.82 198.31 340.44 202.45 334.22 206.54 327.91 210.86 321.74 215.37 315.68 219.8 309.5 224.41 303.4 229.17 297.37 233.81 291.2 238.6 285.06 243.53 278.96 248.32 272.7 253.26 266.45 258.32 260.23 263.25 253.85 268.33 247.5 273.54 241.21 278.64 234.79 283.89 228.46 289.3 222.26 294.62 216.03 300.11 209.99 305.77 204.2 311.36 198.49 317.14 193.13 323.12 188.18 329.04 183.44 335.17 179.22 341.52 175.57 347.82 172.26 354.35 169.61 361.1 167.67 367.83 166.15 374.79 165.37 381.99 165.37 389.17 165.78 396.6 166.93 404.27 168.83" stroke-dasharray="1 10" transform="rotate(24.24, 400, 400)" opacity="0.28"></path><path d="M408.66 179.56C416.03 181.7 423.45 184.4 430.91 187.57 438.37 190.86 445.89 194.51 453.42 198.45 460.96 202.33 468.52 206.4 476.07 210.59 483.63 214.59 491.16 218.66 498.65 222.74 506.11 226.56 513.5 230.37 520.77 234.16 527.99 237.66 535.05 241.16 541.9 244.65 548.65 247.88 555.15 251.14 561.33 254.46 567.34 257.56 572.99 260.77 578.19 264.1 585.41 268.96 596.77 279.48 600.73 285.26 603.59 291.22 605.61 304.49 604.83 311.82 603.91 316.8 602.45 322.06 600.49 327.6 598.49 333.14 596.12 338.95 593.45 345.02 590.93 351.09 588.26 357.42 585.5 363.99 583.11 370.55 580.78 377.36 578.57 384.41 576.9 391.45 575.47 398.57 574.28 405.75 573.67 412.95 573.28 420.21 573.09 427.53 573.39 434.88 573.8 442.31 574.27 449.8 575.1 457.33 575.86 464.95 576.5 472.63 577.33 480.37 577.92 488.18 578.21 496.05 578.52 503.96 578.45 511.91 577.94 519.87 577.35 527.84 576.26 535.78 574.67 543.63 572.92 551.42 570.63 559.06 567.84 566.45 564.85 573.69 561.35 580.59 557.37 587.06 553.22 593.24 548.61 598.88 543.59 603.89 538.42 608.47 532.87 612.32 526.99 615.37 521.01 617.9 514.74 619.57 508.21 620.35 501.62 620.6 494.81 619.99 487.83 618.52 480.82 616.66 473.65 614.06 466.37 610.81 459.07 607.4 451.67 603.54 444.2 599.34 436.73 595.33 429.19 591.21 421.6 587.12 414.02 583.56 406.56 580.31 399.25 577.42 391.93 575.25 384.74 573.5 377.69 572.16 370.63 571.53 363.69 571.24 356.89 571.24 350.06 571.8 343.35 572.49 336.76 573.23 330.14 574.3 323.62 575.25 317.22 575.98 310.78 576.81 304.43 577.28 298.21 577.32 291.93 577.26 285.76 576.68 279.71 575.54 273.61 574.19 267.63 572.24 261.8 569.69 255.93 566.89 250.21 563.51 244.67 559.57 239.11 555.39 233.75 550.7 228.61 545.55 223.5 540.2 218.63 534.45 214.05 528.35 209.53 522.11 205.33 515.58 201.48 508.82 197.73 501.97 194.37 494.93 191.42 487.76 188.62 480.54 186.26 473.22 184.38 465.84 182.67 458.44 181.46 450.99 180.76 443.54 180.26 436.08 180.28 428.62 180.83 421.17 181.57 413.73 182.82 406.48 184.53 399.42 186.39 392.36 188.68 385.47 191.36 378.78 194.13 372.05 197.26 365.49 200.71 359.09 204.18 352.64 207.94 346.33 211.95 340.14 215.93 333.88 220.14 327.71 224.55 321.63 228.88 315.46 233.39 309.34 238.06 303.28 242.62 297.09 247.33 290.94 252.18 284.83 256.91 278.58 261.77 272.35 266.75 266.17 271.62 259.87 276.62 253.61 281.75 247.43 286.78 241.18 291.95 235.03 297.26 229.05 302.48 223.06 307.86 217.29 313.39 211.8 318.86 206.41 324.49 201.37 330.31 196.75 336.07 192.35 342.02 188.44 348.17 185.1 354.28 182.08 360.59 179.69 367.1 177.97 373.6 176.63 380.31 175.99 387.23 176.08 394.15 176.54 401.29 177.7 408.65 179.56" stroke-dasharray="5 4" transform="rotate(28.28, 400, 400)" opacity="0.86"></path><path d="M412.68 190.29C419.72 192.35 426.81 194.95 433.91 198 441.01 201.15 448.14 204.66 455.27 208.46 462.4 212.22 469.53 216.17 476.63 220.27 483.72 224.2 490.76 228.22 497.72 232.28 504.66 236.11 511.49 239.95 518.17 243.79 524.8 247.37 531.25 250.95 537.47 254.54 543.58 257.88 549.43 261.24 554.95 264.65 562.81 269.49 576.17 279.42 581.5 284.63 585.92 289.85 591.54 301.22 592.7 307.45 592.94 313.87 590.49 327.98 587.99 335.69 586.17 340.9 584.02 346.37 581.6 352.11 579.34 357.83 576.93 363.82 574.44 370.05 572.28 376.27 570.15 382.75 568.11 389.48 566.54 396.21 565.15 403.03 563.97 409.93 563.29 416.84 562.79 423.83 562.44 430.9 562.54 437.99 562.73 445.16 562.97 452.4 563.53 459.67 564.04 467.01 564.45 474.4 565.06 481.83 565.46 489.31 565.61 496.82 565.82 504.34 565.69 511.86 565.2 519.35 564.66 526.82 563.7 534.2 562.29 541.46 560.77 548.62 558.79 555.58 556.34 562.26 553.74 568.76 550.68 574.9 547.18 580.61 543.53 586.01 539.46 590.89 534.99 595.16 527.91 600.62 511.91 607.25 503.12 608.27 497.12 608.24 490.88 607.44 484.44 605.89 477.97 604.02 471.33 601.51 464.54 598.42 457.74 595.23 450.81 591.64 443.79 587.74 436.75 584.03 429.63 580.21 422.43 576.39 415.22 573.05 408.12 569.95 401.12 567.16 394.12 565 387.23 563.18 380.44 561.71 373.65 560.87 366.96 560.33 360.38 560.04 353.77 560.26 347.27 560.62 340.88 561.04 334.45 561.79 328.12 562.46 321.9 562.97 315.64 563.62 309.47 563.98 303.42 564 297.32 563.99 291.33 563.53 285.46 562.61 279.55 561.54 273.77 559.96 268.13 557.85 262.47 555.55 256.96 552.72 251.63 549.39 246.3 545.86 241.17 541.84 236.26 537.39 231.38 532.76 226.74 527.73 222.39 522.35 218.11 516.84 214.13 511.03 210.49 504.95 206.96 498.79 203.8 492.41 201.03 485.86 198.41 479.26 196.21 472.52 194.46 465.67 192.88 458.81 191.76 451.86 191.14 444.86 190.69 437.85 190.74 430.79 191.3 423.72 192.03 416.64 193.24 409.7 194.9 402.92 196.69 396.12 198.9 389.47 201.48 382.95 204.15 376.42 207.16 370.01 210.48 363.72 213.83 357.39 217.46 351.16 221.34 345.03 225.2 338.83 229.29 332.71 233.56 326.65 237.79 320.51 242.19 314.42 246.74 308.38 251.21 302.23 255.82 296.12 260.56 290.04 265.21 283.87 269.99 277.73 274.88 271.64 279.67 265.47 284.59 259.37 289.63 253.37 294.58 247.33 299.65 241.43 304.86 235.7 309.98 230.01 315.25 224.55 320.65 219.37 326 214.32 331.49 209.63 337.15 205.35 342.76 201.29 348.53 197.72 354.48 194.68 360.4 191.95 366.5 189.81 372.78 188.3 379.04 187.14 385.5 186.63 392.15 186.8 398.79 187.31 405.63 188.47 412.67 190.28" stroke-dasharray="7 10" transform="rotate(32.32, 400, 400)" opacity="0.26"></path><path d="M416.18 201.01C422.88 203 429.61 205.49 436.33 208.4 443.05 211.42 449.77 214.78 456.48 218.42 463.18 222.05 469.85 225.87 476.46 229.84 483.06 233.7 489.59 237.65 496.01 241.65 502.4 245.47 508.67 249.31 514.76 253.17 520.8 256.8 526.63 260.45 532.23 264.1 537.72 267.53 542.94 270.99 547.83 274.48 554.77 279.46 566.4 289.57 570.96 294.8 574.7 300 579.32 311.15 580.17 317.17 580.25 323.34 577.85 336.8 575.56 344.11 572.96 351.64 566.73 367.92 563.41 376.67 561.46 382.58 559.53 388.75 557.64 395.15 556.17 401.56 554.84 408.07 553.67 414.67 552.94 421.27 552.34 427.96 551.86 434.72 551.78 441.5 551.77 448.36 551.79 455.28 552.12 462.21 552.39 469.21 552.59 476.23 552.97 483.27 553.18 490.34 553.18 497.4 553.27 504.44 553.07 511.46 552.55 518.4 552.03 525.29 551.14 532.07 549.87 538.67 548.52 545.16 546.76 551.41 544.6 557.37 540.98 565.82 531.52 580.21 525.75 585.86 519.45 590.37 505.09 595.49 497.14 596 491.68 595.74 485.99 594.81 480.09 593.22 474.15 591.37 468.03 588.97 461.74 586.06 455.43 583.09 448.98 579.77 442.4 576.17 435.82 572.74 429.12 569.22 422.32 565.67 415.52 562.54 408.78 559.6 402.13 556.91 395.47 554.77 388.89 552.91 382.39 551.33 375.89 550.32 369.46 549.55 363.13 549 356.78 548.93 350.52 548.97 344.34 549.08 338.15 549.52 332.04 549.91 326.02 550.18 319.97 550.62 314.02 550.83 308.17 550.77 299.4 550.53 282.39 548.01 274.2 545.58 268.78 543.67 263.51 541.29 258.41 538.47 253.33 535.48 248.45 532.05 243.78 528.21 239.16 524.23 234.78 519.86 230.67 515.14 226.63 510.3 222.89 505.15 219.47 499.73 216.17 494.23 213.21 488.49 210.63 482.55 208.19 476.56 206.15 470.4 204.54 464.09 203.08 457.77 202.07 451.32 201.51 444.78 201.13 438.24 201.21 431.61 201.77 424.91 202.49 418.21 203.66 411.61 205.26 405.11 206.98 398.61 209.09 392.2 211.56 385.89 214.12 379.57 217 373.33 220.19 367.18 223.41 361 226.9 354.89 230.63 348.85 234.35 342.76 238.3 336.72 242.43 330.73 246.52 324.68 250.79 318.66 255.21 312.69 259.56 306.64 264.06 300.63 268.69 294.66 273.24 288.62 277.91 282.62 282.69 276.7 287.39 270.73 292.21 264.84 297.14 259.08 302 253.3 306.97 247.69 312.06 242.26 317.07 236.9 322.22 231.78 327.49 226.96 332.7 222.27 338.06 217.94 343.55 214.01 349 210.3 354.6 207.05 360.35 204.32 366.07 201.87 371.95 199.97 377.99 198.67 384.02 197.68 390.21 197.3 396.58 197.55 402.93 198.1 409.47 199.25 416.17 201.01" stroke-dasharray="7 0" transform="rotate(36.36, 400, 400)" opacity="0.77"></path><path d="M419.01 211.74C425.36 213.65 431.7 216.02 438.03 218.79 444.35 221.67 450.65 224.87 456.91 228.34 469.4 235.25 481.66 242.87 493.45 250.86 505.1 258.22 516.11 265.74 526.19 273.32 535.88 280.12 544.4 287.07 551.44 294.22 557.85 300.77 562.57 307.76 565.44 315.28 567.64 322.46 568.03 330.38 566.66 339.07 565.03 347.62 562.09 357.07 558.11 367.4 556.33 372.55 554.41 377.94 552.4 383.56 550.66 389.17 548.9 395.02 547.17 401.1 545.8 407.19 544.54 413.37 543.38 419.63 542.61 425.9 541.93 432.25 541.35 438.67 541.21 451.53 541.14 464.65 540.91 477.83 541.42 490.99 541.21 504.1 540.05 516.84 538.96 529.3 536.53 541.07 532.71 551.7 528.59 561.57 522.98 569.82 515.98 576.02 508.65 580.96 500.04 583.54 490.33 583.58 480.42 582.45 469.58 579.08 457.99 573.74 452.17 570.99 446.19 567.93 440.07 564.62 433.94 561.48 427.67 558.23 421.29 554.94 414.9 552.02 408.55 549.25 402.26 546.67 395.96 544.56 389.71 542.68 383.53 541.03 371.15 539.2 359 538.07 347.17 537.38 335.29 537.93 323.69 538.17 312.48 537.71 301.21 537.51 290.34 535.99 280.02 533.01 269.72 529.68 260.05 524.7 251.21 518.17 242.57 511.19 234.9 502.8 228.44 493.23 222.41 483.4 217.73 472.6 214.63 461.07 213.3 455.28 212.38 449.34 211.9 443.26 211.57 437.19 211.68 430.99 212.23 424.69 212.94 418.39 214.07 412.13 215.6 405.94 217.24 399.75 219.25 393.61 221.61 387.54 226.54 375.36 232.69 363.37 239.81 351.61 246.95 339.69 254.9 327.89 263.47 316.27 271.85 304.45 280.79 292.78 290.16 281.42 299.26 269.98 308.83 259 318.8 248.78 328.52 238.87 338.74 230.07 349.41 222.74 359.93 216.24 371.01 211.59 382.61 209.08 388.39 208.26 394.31 207.99 400.38 208.31 406.44 208.89 412.65 210.03 419 211.73" stroke-dasharray="4 3" transform="rotate(40.400000000000006, 400, 400)" opacity="0.57"></path><path d="M421.05 222.46C433.01 226.28 444.86 231.67 456.46 238.23 468.03 244.83 479.27 252.15 489.98 259.9 500.55 267.15 510.42 274.62 519.35 282.18 527.93 289.08 535.37 296.14 541.43 303.37 546.95 310.05 550.95 317.09 553.28 324.56 555.1 331.7 555.33 339.45 554.03 347.87 552.58 356.13 549.98 365.18 546.46 375.03 543.5 384.82 540.17 395.47 536.71 406.98 534.49 418.49 532.55 430.35 530.9 442.4 530.45 454.47 530.02 466.71 529.43 478.9 529.54 491.04 529.04 503 527.73 514.47 526.57 525.63 524.27 536.01 520.77 545.22 517.08 553.7 512.07 560.63 505.8 565.65 499.28 569.59 491.56 571.42 482.8 571.02 473.87 569.69 464 566.42 453.36 561.45 442.67 556.44 431.3 550.55 419.38 544.22 407.46 539.15 395.59 534.61 383.9 530.8 372.21 528.67 360.67 527.11 349.41 525.93 338.12 525.91 327.07 525.66 316.4 524.89 305.71 524.47 295.4 522.99 285.64 520.3 275.93 517.41 266.85 513.1 258.57 507.41 250.51 501.39 243.38 494.05 237.41 485.56 231.84 476.85 227.55 467.15 224.73 456.66 222.46 446.09 221.74 434.84 222.7 423.06 224.21 411.27 227.25 399.52 231.62 387.93 236.3 376.3 242.13 364.75 248.89 353.36 255.71 341.87 263.31 330.45 271.53 319.22 279.61 307.86 288.24 296.69 297.29 285.87 306.13 275.08 315.41 264.8 325.05 255.31 334.5 246.19 344.39 238.16 354.67 231.56 364.83 225.74 375.46 221.65 386.53 219.54 397.55 218.45 409.08 219.4 421.04 222.46" stroke-dasharray="4 10" transform="rotate(44.44, 400, 400)" opacity="0.27"></path><path d="M422.22 233.19C433.41 236.81 444.41 241.89 455.08 248.07 465.72 254.33 475.95 261.33 485.6 268.78 495.11 275.85 503.9 283.19 511.76 290.68 519.32 297.61 525.78 304.71 530.97 311.96 535.72 318.73 539.1 325.81 541 333.23 542.52 340.34 542.66 347.97 541.47 356.14 540.22 364.16 537.97 372.85 534.89 382.23 532.32 391.55 529.38 401.64 526.24 412.47 524.17 423.3 522.25 434.4 520.51 445.6 519.8 456.8 519.06 468.08 518.16 479.21 517.89 490.25 517.11 501 515.64 511.18 514.37 521.04 512.14 530.06 508.86 537.91 505.5 545.1 500.97 550.82 495.33 554.79 489.51 557.88 482.59 559.09 474.68 558.36 466.64 556.91 457.69 553.79 447.97 549.2 438.19 544.65 427.72 539.29 416.67 533.49 405.61 528.78 394.53 524.43 383.56 520.63 372.59 518.27 361.73 516.36 351.1 514.74 340.46 514.19 330.05 513.48 319.97 512.36 309.92 511.67 300.24 510.12 291.08 507.58 282.02 504.98 273.56 501.17 265.88 496.14 258.42 490.9 251.86 484.45 246.38 476.91 241.28 469.2 237.38 460.51 234.85 450.98 232.82 441.4 232.21 431.07 233.17 420.12 234.62 409.16 237.49 398.13 241.61 387.13 246.02 376.13 251.51 365.12 257.89 354.22 264.34 343.26 271.56 332.35 279.38 321.63 287.11 310.87 295.38 300.31 304.06 290.15 312.58 280.1 321.52 270.59 330.79 261.89 339.92 253.59 349.44 246.35 359.28 240.48 369.03 235.33 379.19 231.78 389.69 230.05 400.15 229.22 411.02 230.24 422.22 233.19" stroke-dasharray="10 2" transform="rotate(48.48, 400, 400)" opacity="0.62"></path><path d="M422.47 243.91C432.87 247.33 443 252.09 452.74 257.88 462.44 263.78 471.69 270.4 480.32 277.51 488.83 284.34 496.6 291.49 503.47 298.81 510.09 305.69 515.69 312.76 520.12 319.97 524.21 326.78 527.07 333.85 528.65 341.2 529.95 348.26 530.05 355.75 529 363.69 527.96 371.47 526.04 379.82 523.37 388.74 521.18 397.61 518.6 407.12 515.77 417.24 513.85 427.37 511.97 437.66 510.17 447.97 509.26 458.26 508.26 468.51 507.08 478.54 506.49 488.44 505.43 497.97 503.8 506.87 502.4 515.44 500.18 523.17 497.07 529.75 491.88 538.09 476.36 546.21 466.11 545.61 458.87 544.12 450.78 541.19 441.93 536.99 433.04 532.89 423.45 528.05 413.26 522.77 403.08 518.41 392.81 514.27 382.6 510.53 372.41 508 362.28 505.8 352.33 503.82 342.41 502.8 332.68 501.65 323.27 500.19 313.91 499.18 304.91 497.49 296.41 494.99 288.03 492.54 280.23 489.07 273.17 484.55 266.34 479.92 260.35 474.2 255.37 467.48 250.75 460.65 247.24 452.86 244.99 444.24 243.18 435.57 242.69 426.14 243.63 416.03 245.02 405.92 247.72 395.64 251.57 385.33 255.68 375.01 260.82 364.64 266.79 354.34 272.86 344.02 279.67 333.74 287.04 323.66 294.38 313.6 302.24 303.77 310.49 294.37 318.63 285.12 327.18 276.45 336.02 268.58 344.76 261.12 353.85 254.68 363.21 249.52 372.5 245.02 382.13 241.99 392.02 240.61 401.89 240.01 412.07 241.09 422.47 243.91" stroke-dasharray="7 5" transform="rotate(52.52, 400, 400)" opacity="0.50"></path><path d="M421.79 254.64C431.38 257.84 440.64 262.27 449.46 267.65 458.24 273.16 466.54 279.38 474.2 286.1 481.76 292.62 488.59 299.49 494.57 306.58 500.35 313.32 505.19 320.27 508.97 327.37 512.5 334.13 514.95 341.13 516.27 348.35 517.41 355.33 517.52 362.65 516.63 370.33 515.8 377.87 514.2 385.87 511.93 394.32 510.07 402.72 507.83 411.64 505.3 421.04 503.54 430.44 501.72 439.89 499.89 449.26 498.81 458.61 497.6 467.82 496.21 476.72 495.33 485.49 494.04 493.82 492.26 501.47 490.71 508.84 488.48 515.35 485.49 520.79 480.63 527.61 466.5 533.73 457.26 532.8 450.74 531.33 443.44 528.63 435.42 524.83 427.36 521.16 418.63 516.83 409.31 512.04 400 508.04 390.57 504.14 381.15 500.49 371.76 497.86 362.4 495.43 353.21 493.17 344.04 491.74 335.05 490.2 326.37 488.41 317.75 487.08 309.47 485.2 301.67 482.67 294.01 480.27 286.89 477.02 280.47 472.88 274.28 468.7 268.87 463.58 264.4 457.56 260.25 451.46 257.12 444.48 255.14 436.69 253.56 428.87 253.18 420.29 254.1 411.03 255.42 401.76 257.93 392.28 261.5 382.71 265.32 373.15 270.08 363.51 275.62 353.91 281.28 344.32 287.63 334.79 294.53 325.46 301.42 316.19 308.82 307.18 316.59 298.61 324.3 290.24 332.38 282.44 340.74 275.43 349.03 268.81 357.62 263.16 366.45 258.7 375.23 254.82 384.27 252.28 393.52 251.22 402.75 250.83 412.2 251.96 421.79 254.64" stroke-dasharray="8 2" transform="rotate(56.56, 400, 400)" opacity="0.39"></path><path d="M420.21 265.36C428.97 268.34 437.35 272.43 445.28 277.39 453.17 282.49 460.55 288.28 467.31 294.55 473.98 300.71 479.96 307.24 485.15 314 490.18 320.52 494.35 327.26 497.59 334.15 500.65 340.78 502.77 347.62 503.91 354.64 504.94 361.47 505.09 368.58 504.38 375.95 503.76 383.21 502.46 390.82 500.55 398.77 499.01 406.68 497.08 414.98 494.84 423.63 493.22 432.28 491.48 440.88 489.67 449.3 488.47 457.7 487.1 465.86 485.53 473.65 484.42 481.32 482.93 488.49 481.02 494.98 478.21 503.94 469.57 516.58 463.5 519.75 459.18 521.05 454.09 521.12 448.27 519.96 442.41 518.56 435.83 516.11 428.59 512.71 421.33 509.47 413.43 505.62 404.98 501.32 396.53 497.66 387.94 494.01 379.36 490.51 370.79 487.83 362.25 485.26 353.84 482.79 345.47 481.02 337.27 479.14 329.35 477.07 321.5 475.43 313.98 473.35 306.92 470.75 299.99 468.32 293.58 465.19 287.82 461.33 282.26 457.49 277.44 452.83 273.47 447.39 269.79 441.91 267.03 435.64 265.32 428.62 263.96 421.58 263.68 413.82 264.57 405.4 265.8 396.98 268.13 388.32 271.4 379.55 274.91 370.8 279.29 361.96 284.39 353.16 289.6 344.39 295.47 335.68 301.85 327.19 308.26 318.79 315.14 310.67 322.38 303 329.6 295.53 337.16 288.63 344.97 282.49 352.75 276.71 360.79 271.83 369.03 268.03 377.23 264.74 385.65 262.65 394.21 261.89 402.75 261.69 411.46 262.83 420.21 265.36" stroke-dasharray="7 7" transform="rotate(60.599999999999994, 400, 400)" opacity="0.69"></path><path d="M417.8 276.09C425.71 278.84 433.24 282.57 440.29 287.1 447.32 291.77 453.84 297.09 459.77 302.88 465.62 308.62 470.83 314.73 475.31 321.1 479.68 327.3 483.29 333.74 486.07 340.32 488.74 346.72 490.59 353.31 491.61 360.05 492.58 366.65 492.79 373.46 492.26 380.46 491.83 387.38 490.81 394.56 489.24 401.97 487.98 409.35 486.34 417.01 484.37 424.89 482.9 432.77 481.26 440.49 479.49 447.97 478.21 455.42 476.74 462.57 475.06 469.29 472.94 478.96 467.18 494.9 463.22 500.67 458.82 505.07 446.9 508.32 439.34 507.12 434.06 505.83 428.15 503.65 421.65 500.65 415.13 497.82 408.04 494.42 400.44 490.59 392.83 487.29 385.1 483.91 377.36 480.58 369.64 477.91 361.93 475.27 354.35 472.66 346.81 470.64 339.42 468.51 332.3 466.2 325.26 464.29 318.52 462.02 312.22 459.34 306.04 456.84 300.33 453.78 295.23 450.13 290.32 446.52 286.07 442.24 282.6 437.29 279.38 432.33 276.99 426.68 275.53 420.36 274.37 414.03 274.18 407.05 275.03 399.47 276.19 391.88 278.31 384.06 281.29 376.14 284.48 368.24 288.46 360.26 293.09 352.32 297.85 344.43 303.2 336.62 309.04 329.04 314.92 321.56 321.25 314.37 327.91 307.62 334.57 301.08 341.55 295.08 348.77 289.79 355.96 284.83 363.4 280.69 370.98 277.52 378.56 274.79 386.3 273.12 394.13 272.61 401.96 272.58 409.88 273.72 417.8 276.09" stroke-dasharray="4 7" transform="rotate(64.64, 400, 400)" opacity="0.57"></path><path d="M414.65 286.81C421.72 289.32 428.4 292.7 434.62 296.79 440.82 301.01 446.53 305.84 451.68 311.11 456.79 316.37 461.3 322.01 465.17 327.91 468.96 333.7 472.08 339.74 474.5 345.93 476.84 351.99 478.48 358.23 479.42 364.59 480.35 370.85 480.63 377.28 480.28 383.84 480.03 390.34 479.26 397.03 478 403.85 476.99 410.66 475.62 417.63 473.9 424.72 472.59 431.81 471.05 438.67 469.35 445.22 468.05 451.75 466.52 457.93 464.78 463.66 462.48 471.86 456.54 485.04 452.66 489.67 448.44 493.16 437.45 495.47 430.61 494.29 425.86 493.14 420.57 491.24 414.77 488.65 408.96 486.2 402.64 483.25 395.88 479.87 389.11 476.91 382.23 473.82 375.34 470.7 368.47 468.1 361.61 465.46 354.87 462.79 348.18 460.6 341.63 458.29 335.33 455.82 329.1 453.69 323.16 451.27 317.62 448.52 309.7 444.44 296.63 434.03 291.8 427.52 288 420.45 284.75 403.45 285.5 393.56 286.56 386.79 288.48 379.83 291.16 372.78 294.02 365.76 297.59 358.67 301.75 351.65 306.02 344.68 310.85 337.81 316.11 331.18 321.43 324.64 327.16 318.4 333.2 312.59 339.26 306.97 345.61 301.86 352.17 297.4 358.74 293.22 365.51 289.77 372.4 287.2 379.29 284.97 386.31 283.68 393.38 283.4 400.45 283.5 407.57 284.62 414.65 286.81" stroke-dasharray="2 5" transform="rotate(68.68, 400, 400)" opacity="0.90"></path><path d="M410.89 297.54C423.35 302.26 434.27 309.84 443.22 319.25 452.02 328.72 458.7 339.54 462.95 351 467.06 362.15 468.89 374 468.44 386.11 468.39 398.08 466.68 410.57 463.44 423.15 461.43 435.72 458.44 447.14 454.69 456.83 451.93 466.27 447.9 473.59 442.55 478.18 437.54 482.21 430.75 483.37 422.24 481.51 413.74 479.56 403.39 475.3 391.49 469.14 379.58 464.28 367.35 458.81 355.55 453.17 343.89 448.99 332.85 444.11 323.19 438.38 313.92 433.31 306.31 426.66 301.09 418.35 296.56 410.12 294.66 399.95 295.97 388.02 298.08 376.09 303.13 363.6 310.37 351.39 318.02 339.37 327.58 327.93 338.31 318 349.15 308.7 361.05 301.43 373.35 297.05 385.69 293.81 398.42 293.81 410.89 297.54" stroke-dasharray="8 1" transform="rotate(72.72, 400, 400)" opacity="0.63"></path><path d="M406.68 308.26C417.48 312.43 426.86 319.06 434.51 327.31 442.06 335.69 447.8 345.35 451.5 355.62 455.15 365.74 456.92 376.47 456.76 387.37 456.96 398.18 455.68 409.3 452.97 420.25 451.18 431.21 448.37 440.91 444.78 448.94 441.95 456.8 437.98 462.72 432.92 466.31 428.16 469.55 421.95 470.41 414.37 468.8 406.81 467.21 397.76 463.67 387.45 458.42 377.14 454.15 366.61 449.12 356.51 443.78 346.53 439.53 337.14 434.6 328.98 428.96 321.15 423.89 314.78 417.57 310.47 410 306.71 402.52 305.2 393.53 306.43 383.16 308.31 372.8 312.69 362.11 318.97 351.77 325.61 341.6 333.92 332.06 343.28 323.92 352.77 316.29 363.2 310.46 373.96 307.11 384.77 304.63 395.88 304.88 406.68 308.26" stroke-dasharray="3 10" transform="rotate(76.76, 400, 400)" opacity="0.37"></path><path d="M402.2 318.99C411.36 322.59 419.28 328.26 425.73 335.32 432.13 342.54 437.02 350.92 440.24 359.87 443.46 368.76 445.15 378.21 445.25 387.73 445.63 397.22 444.73 406.87 442.5 416.21 440.95 425.54 438.38 433.64 435.05 440.19 430.38 449.01 416.57 457.16 407.11 456.18 400.49 454.95 392.69 452.08 383.93 447.69 375.17 444.02 366.31 439.53 357.87 434.61 349.53 430.48 341.75 425.69 335.05 420.31 328.6 415.37 323.41 409.47 319.96 402.66 316.92 395.95 315.77 388.09 316.9 379.26 318.52 370.43 322.25 361.49 327.57 352.99 333.18 344.61 340.23 336.89 348.18 330.42 356.27 324.35 365.17 319.82 374.34 317.37 383.57 315.54 393.03 315.98 402.2 318.99" stroke-dasharray="7 5" transform="rotate(80.80000000000001, 400, 400)" opacity="0.98"></path><path d="M397.62 329.71C405.17 332.73 411.7 337.43 417.03 343.29 422.34 349.3 426.44 356.32 429.22 363.83 432.03 371.36 433.61 379.36 433.89 387.39 434.4 395.42 433.8 403.52 432.04 411.24 430.72 418.96 428.46 425.55 425.48 430.79 421.14 437.87 408.73 444.37 400.55 443.66 394.88 442.77 388.33 440.53 381.08 436.97 373.82 433.89 366.59 430.01 359.77 425.65 353.01 421.82 346.77 417.36 341.45 412.43 336.31 407.8 332.22 402.45 329.57 396.47 327.2 390.57 326.36 383.87 327.37 376.55 328.73 369.22 331.79 361.97 336.16 355.2 340.75 348.53 346.54 342.5 353.08 337.56 359.73 332.9 367.07 329.52 374.64 327.83 382.26 326.57 390.07 327.11 397.62 329.71" stroke-dasharray="9 9" transform="rotate(84.84, 400, 400)" opacity="0.35"></path><path d="M393.14 340.44C405.1 345.52 413.89 355.65 418.51 367.62 423.31 379.74 424.53 393.37 421.57 405.63 419.74 417.88 414.47 426.25 407.14 429.73 400.31 433.14 390.54 432.04 379 426.24 367.46 421.67 356.4 414.1 348.23 405.3 340.52 397.28 336.35 386.86 337.83 375.16 340.23 363.46 347.85 352.71 358.03 345.37 368.55 338.72 381.19 336.43 393.14 340.44" stroke-dasharray="6 1" transform="rotate(88.88, 400, 400)" opacity="0.65"></path><path d="M388.95 351.16C397.82 354.96 404.48 362.45 408.17 371.35 411.99 380.39 413.17 390.59 411.1 399.7 409.65 408.81 405.41 415 399.58 417.63 394.03 420.31 386.43 419.71 377.8 415.52 369.17 412.01 361.16 405.96 355.42 398.89 349.93 392.24 347.06 383.96 348.3 375.19 350.07 366.41 355.64 358.79 363.1 353.87 370.78 349.32 380.08 347.99 388.95 351.16" stroke-dasharray="9 0" transform="rotate(92.92, 400, 400)" opacity="0.32"></path><path d="M385.21 361.89C396.93 367.15 403.46 381.74 400.63 393.79 398.89 405.83 389.01 410.41 377.51 404.79 366.01 400.36 357.2 388.35 358.77 376.63 361.31 364.89 373.48 357.74 385.21 361.89" stroke-dasharray="2 10" transform="rotate(96.96, 400, 400)" opacity="0.95"></path></g></svg>